<svg width="512" height="512" viewBox="0 0 512 512" fill="none" xmlns="http://www.w3.org/2000/svg">
<rect width="512" height="512" rx="80" fill="url(#paint0_linear_98_3)"/>
<path fill-rule="evenodd" clip-rule="evenodd" d="M230.45 71.4511C177.229 73.1931 131.004 104.169 110.885 151.572C104.658 166.244 101.834 179.661 101.817 194.653C101.801 208.043 103.429 216.552 108.378 228.964C110.491 234.262 115.125 243.424 116.347 244.719C117.384 245.819 117.298 244.356 116.04 239.518C113.795 230.878 113.074 225.203 113.089 216.282C113.104 207.264 113.916 200.728 116.047 192.469C123.147 164.947 142.003 137.178 164.964 120.428C176.062 112.332 191.265 105.226 205.271 101.59C225.335 96.3798 248.382 97.4669 266.539 104.479C284.463 111.402 301.275 124.831 311.884 140.701C319.693 152.384 325.184 167.567 327.031 182.583C327.798 188.816 327.395 202.503 326.263 208.7C322.933 226.921 315.654 241.652 304.059 253.638C295.377 262.613 285.088 268.909 274.44 271.764C269.81 273.004 268.337 273.152 260.216 273.184C247.777 273.232 243.729 272.218 223.309 263.938C206.174 256.99 179.513 247.083 177.948 247.083C176.394 247.083 178.108 248.389 185.8 253.066C215.47 271.106 236.863 288.288 248.504 303.429C257.186 314.721 262.364 325.376 271.362 350.466C277.813 368.456 280.299 374.029 286.477 384.361C304.163 413.936 332.26 433.367 364.547 438.35C385.972 441.656 409.515 437.849 428.704 427.976C435.633 424.41 446.382 416.559 445.539 415.679C445.394 415.528 442.948 416.219 440.103 417.214C422.912 423.232 407.642 424.941 391.964 422.602C366.149 418.75 343.996 403.485 327.811 378.396C322.377 369.974 315.796 356.501 310.763 343.502C302.961 323.348 295.643 310.866 285.615 300.614L280.985 295.88L283.931 295.536C307.583 292.776 330.109 281.172 345.193 263.98C362.699 244.03 371.637 216.399 369.542 188.711C367.304 159.121 354.977 132.587 333.513 111.161C316.801 94.4804 297.139 83.0678 273.921 76.572C260.953 72.9436 244.405 70.9945 230.45 71.4511ZM220.614 108.956C198.797 110.852 174.637 123.257 156.629 141.809C154.179 144.332 150.753 148.08 149.014 150.137C140.788 159.872 130.331 178.406 126.444 190.139C120.878 206.945 119.823 218.566 122.518 233.365C124.83 246.055 125.147 248.892 125.142 256.841C125.137 266.813 124.173 272.838 119.953 289.274C113.501 314.405 111.99 325.81 113.163 340.524C114.563 358.064 118.405 371.723 126.237 386.992C140.021 413.867 164.345 433.289 191.883 439.411C197.117 440.576 211.448 441.02 216.657 440.181C237.295 436.853 251.947 422.864 257.213 401.458C259.237 393.235 258.564 372.361 256.275 372.361C255.714 372.361 255.557 373.421 255.557 377.212C255.557 383.168 254.01 392.369 252.019 398.245C246.759 413.773 236.624 424.847 223.72 429.164C219.945 430.427 218.868 430.55 211.554 430.556C202.681 430.563 200.255 430.101 192.909 427.003C185.951 424.068 181.231 420.799 175.317 414.818C167.242 406.652 162.445 398.29 159.569 387.374C153.34 363.717 162.14 336.723 180.235 323.981C181.943 322.777 185.999 320.3 189.248 318.476C196.733 314.271 201.923 309.575 204.183 304.962C209.063 294.998 206.77 285.009 197.4 275.406C192.761 270.653 187.713 266.788 174.799 258.101C164.812 251.384 159.955 247.423 156.611 243.272C152.074 237.641 149.433 230.402 149.433 223.599C149.433 214.411 154.24 203.305 159.568 200.183C163.564 197.841 165.599 198.519 173.859 204.946C180.853 210.387 184.619 212.45 188.183 212.793C192.793 213.236 195.743 210.971 197.126 205.928C198.464 201.047 198.854 200.627 202.877 199.75C204.966 199.294 206.2 197.169 205.481 195.264C204.945 193.843 204.988 193.762 206.293 193.751C207.052 193.745 208.254 193.292 208.966 192.745C210.134 191.847 210.247 191.436 210.124 188.535C209.951 184.482 210.747 183.409 213.931 183.409C218.036 183.409 220.355 181.843 220.355 179.071C220.355 178.15 219.631 175.429 218.745 173.025C217.61 169.941 217.082 167.491 216.952 164.697C216.779 160.982 216.831 160.754 217.779 161.003C219.487 161.45 222.316 160.657 223.965 159.27C225.922 157.623 225.609 157.027 222.974 157.38C220.33 157.735 218.284 157.204 218.284 156.163C218.284 155.709 219.319 153.675 220.583 151.643C223.881 146.344 225.812 141.953 227.444 136.042C228.78 131.205 228.874 130.192 228.885 120.618L228.897 110.372L230.084 110.074C230.737 109.91 231.183 109.513 231.075 109.191C230.839 108.487 227.002 108.4 220.614 108.956ZM206.509 327.376C203.448 328.107 198.212 331.764 195.992 334.722C192.979 338.735 191.716 343.053 191.977 348.434C192.246 353.963 193.77 357.642 197.394 361.517C200.471 364.807 203.543 366.643 206.734 367.099C208.681 367.378 209.354 367.744 209.984 368.87C210.698 370.147 210.698 370.434 209.983 371.714C209.295 372.947 208.775 373.179 206.101 373.449C204.402 373.62 202.153 374.126 201.103 374.574C198.582 375.648 194.633 379.332 193.39 381.768C192.164 384.172 190.74 385.041 189.294 384.267C187.799 383.467 188.002 382.706 190.304 380.473C191.428 379.383 192.632 377.635 192.98 376.59C193.812 374.091 193.821 368.964 192.997 366.568C192.276 364.469 188.904 360.814 186.58 359.613C184.126 358.344 180.425 358.151 177.455 359.138C169.405 361.812 166.19 371.548 169.303 383.819C175.37 407.739 198.705 425.347 218.236 420.743C223.526 419.496 227.37 417.167 232.261 412.245C240.437 404.018 244.625 393.99 245.785 379.867C246.726 368.392 244.753 357.803 239.797 347.736C235.234 338.466 227.845 330.975 220.487 328.16C217.572 327.044 209.739 326.605 206.509 327.376Z" fill="white"/>
<defs>
<linearGradient id="paint0_linear_98_3" x1="483.723" y1="-46.7418" x2="256" y2="512" gradientUnits="userSpaceOnUse">
<stop stop-color="#D3C5D9"/>
<stop offset="0.492784" stop-color="#7C5D8A"/>
<stop offset="1" stop-color="#7C5D8A"/>
</linearGradient>
</defs>
</svg>
