<svg width="364" height="390" viewBox="0 0 364 390" fill="none" xmlns="http://www.w3.org/2000/svg">
<path fill-rule="evenodd" clip-rule="evenodd" d="M138.633 10.0656C85.413 11.8076 39.1872 42.7838 19.0682 90.1868C12.8411 104.858 10.0172 118.275 10.0001 133.268C9.98509 146.658 11.6121 155.167 16.5616 167.579C18.6743 172.876 23.3085 182.038 24.5302 183.334C25.5676 184.434 25.4817 182.971 24.2237 178.132C21.9786 169.493 21.2575 163.818 21.2725 154.896C21.2875 145.878 22.0997 139.342 24.2305 131.083C31.3309 103.561 50.1867 75.7923 73.1472 59.0424C84.2451 50.9465 99.4487 43.8408 113.455 40.2042C133.519 34.9943 156.566 36.0814 174.723 43.0938C192.647 50.0162 209.458 63.4457 220.067 79.3156C227.876 90.9985 233.368 106.181 235.215 121.198C235.982 127.431 235.579 141.118 234.447 147.314C231.117 165.535 223.838 180.267 212.243 192.253C203.561 201.228 193.272 207.524 182.624 210.378C177.994 211.619 176.521 211.766 168.4 211.798C155.961 211.847 151.913 210.833 131.493 202.552C114.358 195.604 87.697 185.698 86.1315 185.698C84.578 185.698 86.2915 187.004 93.9836 191.681C123.653 209.72 145.046 226.902 156.688 242.043C165.37 253.335 170.547 263.99 179.545 289.08C185.997 307.071 188.482 312.644 194.66 322.975C212.347 352.551 240.443 371.981 272.73 376.964C294.156 380.271 317.699 376.464 336.887 366.59C343.816 363.025 354.566 355.174 353.722 354.294C353.577 354.143 351.131 354.833 348.287 355.829C331.096 361.847 315.826 363.556 300.148 361.216C274.333 357.365 252.18 342.1 235.994 317.01C230.561 308.588 223.979 295.116 218.947 282.117C211.145 261.963 203.826 249.481 193.799 239.229L189.169 234.495L192.114 234.151C215.766 231.39 238.293 219.787 253.377 202.595C270.882 182.644 279.82 155.013 277.726 127.325C275.488 97.735 263.161 71.2016 241.696 49.776C224.985 33.0949 205.323 21.6823 182.105 15.1865C169.137 11.5581 152.588 9.60904 138.633 10.0656ZM128.797 47.5702C106.98 49.467 82.821 61.8715 64.8121 80.4234C62.363 82.9461 58.9365 86.694 57.1976 88.7518C48.9712 98.4867 38.5142 117.021 34.628 128.754C29.062 145.559 28.0064 157.18 30.7019 171.98C33.0134 184.669 33.3307 187.506 33.326 195.456C33.3209 205.427 32.357 211.452 28.1369 227.888C21.6846 253.02 20.1735 264.425 21.347 279.138C22.7463 296.679 26.589 310.338 34.4204 325.606C48.2051 352.481 72.5286 371.904 100.066 378.026C105.301 379.19 119.632 379.635 124.841 378.795C145.478 375.468 160.13 361.479 165.397 340.072C167.421 331.85 166.747 310.975 164.458 310.975C163.897 310.975 163.74 312.036 163.74 315.826C163.74 321.783 162.193 330.983 160.203 336.859C154.943 352.388 144.807 363.462 131.903 367.779C128.128 369.042 127.052 369.165 119.738 369.17C110.865 369.178 108.439 368.715 101.093 365.617C94.1343 362.682 89.4141 359.413 83.5007 353.433C75.426 345.266 70.6282 336.904 67.753 325.988C61.5233 302.332 70.3233 275.337 88.4186 262.595C90.127 261.392 94.1824 258.915 97.4314 257.09C104.917 252.885 110.107 248.19 112.366 243.576C117.246 233.613 114.954 223.623 105.583 214.021C100.944 209.267 95.897 205.403 82.983 196.716C72.996 189.998 68.1382 186.038 64.7945 181.887C60.2576 176.255 57.6169 169.017 57.6169 162.213C57.6169 153.026 62.4241 141.92 67.752 138.797C71.7474 136.456 73.7824 137.134 82.0424 143.56C89.0362 149.001 92.8023 151.064 96.3665 151.407C100.976 151.85 103.927 149.585 105.309 144.543C106.648 139.661 107.038 139.242 111.06 138.364C113.15 137.909 114.384 135.783 113.665 133.878C113.128 132.457 113.171 132.377 114.477 132.366C115.235 132.36 116.438 131.907 117.15 131.36C118.318 130.462 118.43 130.051 118.307 127.149C118.134 123.096 118.931 122.024 122.114 122.024C126.22 122.024 128.538 120.458 128.538 117.686C128.538 116.764 127.814 114.043 126.929 111.64C125.793 108.555 125.266 106.105 125.136 103.311C124.963 99.5961 125.014 99.3688 125.963 99.6173C127.671 100.064 130.5 99.2715 132.148 97.8841C134.106 96.2374 133.793 95.641 131.158 95.9946C128.513 96.3492 126.468 95.8186 126.468 94.777C126.468 94.323 127.503 92.2891 128.767 90.2572C132.064 84.9588 133.995 80.5679 135.628 74.6565C136.963 69.8199 137.058 68.8068 137.069 59.2329L137.08 48.9865L138.268 48.6884C138.92 48.5243 139.367 48.1272 139.259 47.8052C139.023 47.1012 135.185 47.0147 128.797 47.5702ZM114.692 265.991C111.632 266.721 106.396 270.378 104.175 273.336C101.163 277.349 99.8991 281.667 100.161 287.049C100.43 292.578 101.953 296.257 105.578 300.131C108.655 303.422 111.726 305.258 114.917 305.714C116.865 305.993 117.537 306.359 118.167 307.485C118.881 308.761 118.881 309.049 118.167 310.328C117.479 311.561 116.959 311.794 114.284 312.063C112.586 312.234 110.337 312.741 109.286 313.188C106.766 314.263 102.817 317.946 101.574 320.383C100.347 322.786 98.9233 323.655 97.478 322.882C95.9829 322.082 96.1853 321.321 98.4874 319.087C99.6113 317.997 100.815 316.25 101.164 315.205C101.996 312.705 102.005 307.579 101.181 305.183C100.459 303.083 97.0876 299.429 94.7633 298.227C92.31 296.958 88.6086 296.766 85.6382 297.752C77.5889 300.426 74.3736 310.162 77.4864 322.433C83.554 346.353 106.889 363.961 126.42 359.357C131.71 358.11 135.554 355.782 140.445 350.86C148.621 342.633 152.809 332.605 153.968 318.482C154.91 307.006 152.937 296.418 147.981 286.35C143.418 277.081 136.028 269.589 128.671 266.774C125.756 265.659 117.923 265.22 114.692 265.991Z" fill="white"/>
</svg>
